<?xml version="1.0" encoding="utf-8"?>
<!-- Generator: Adobe Illustrator 24.1.3, SVG Export Plug-In . SVG Version: 6.00 Build 0)  -->
<svg version="1.1" id="Layer_1" xmlns:sketch="http://www.bohemiancoding.com/sketch/ns"
	 xmlns="http://www.w3.org/2000/svg" xmlns:xlink="http://www.w3.org/1999/xlink" x="0px" y="0px" viewBox="0 0 376 148"
	 style="enable-background:new 0 0 376 148;" xml:space="preserve">
<style type="text/css">
	.st0{fill-rule:evenodd;clip-rule:evenodd;fill:url(#Shape_15_);}
	.st1{fill-rule:evenodd;clip-rule:evenodd;fill:#331C00;}
	.st2{fill-rule:evenodd;clip-rule:evenodd;fill:#734B02;}
	.st3{fill-rule:evenodd;clip-rule:evenodd;fill:#231000;}
	.st4{fill-rule:evenodd;clip-rule:evenodd;fill:#3A2001;}
	.st5{fill-rule:evenodd;clip-rule:evenodd;fill:#FFFFFF;}
	.st6{fill-rule:evenodd;clip-rule:evenodd;fill:url(#SVGID_1_);}
</style>
<desc>Created with Sketch.</desc>
<g id="Page-1" sketch:type="MSPage">
	<g id="dirt" transform="translate(-0.003290, 0.157900)" sketch:type="MSLayerGroup">
		
			<linearGradient id="Shape_15_" gradientUnits="userSpaceOnUse" x1="-108.7042" y1="491.8808" x2="-107.703" y2="491.8808" gradientTransform="matrix(371.1563 0 0 -147.5939 40345.8125 72672.5156)">
			<stop  offset="0" style="stop-color:#492A01"/>
			<stop  offset="1" style="stop-color:#6A3700"/>
		</linearGradient>
		<path id="Shape" sketch:type="MSShapeGroup" class="st0" d="M273.2,0.1c-4,0-7.7,1.3-10.6,3.4c-2.3-1.1-5-1.8-7.8-1.8
			c-17.5,0-17.3,19.5-20.1,32.3c-4.6,3-9.2,5.9-13.8,8.9c2.5-1.6-10.6-9.9-11.7-10.6c-6.9-4.2-13.7-5.1-21.8-4.9
			c-6.6,0.1-13.5,0.6-19.4,3.7s-10.6,9.3-10,15.8c-3.9-2.5-9.1-0.6-13,1.9c-3.9,2.5-8,5.6-12.7,5.2c-5.5-0.5-9.3-5.6-14.1-8.1
			c-8.8-4.7-21.3,1-23.6,10.7c1.7-7.3-14.2-11.9-18.7-11.4c-4.3,0.5-6.8,3.1-10.7,4.6c-4.4,1.6-9.5,1.1-14,2.5
			c-5,1.6-9.1,5.5-11,10.4c-8.8-3.5-19.8,0-24.9,8c0,0-8.9,1.5-10.3,2.6c-3,2.2-5.3,5.9-5.3,9.7c0,8.5,8.5,10,14.8,12.5
			c3.4,1.4,6.1,4,9.4,5.6c4.9,2.4,10.8,2.4,15.7-0.1c2,5.2,7.9,7.5,13.2,8.7c7.7,1.7,15.6,2.2,23.5,1.4c1.4-0.1,2.7-0.3,4.1-0.1
			c2,0.3,3.9,1.3,5.7,2.2c9.5,5,19.7,8.8,29.7,12.6c2.6,1,5.3,2,8.1,1.9s5.7-1.5,6.8-4.1c1.8,3.6,3.7,7.3,6.8,10
			c4,3.4,6.8,2.2,11.3,2.3c2.6,0.1,1.9-0.5,4.8,0.6c2,0.7,3.9,2.3,5.8,3.3c8.4,4.2,18,7,27.4,7.7c12,1,27.3-1.7,35.3-11.6
			c0.8,0,1.6-0.1,2.3-0.2c2.1,0.9,4.5,1.5,7,1.5c6.9,0,12.8-3.9,15.3-9.3c0.4-0.3,0.8-0.6,1.2-1c0.9,0.1,1.8,0.3,2.8,0.3
			c1.4,0,2.8-0.2,4.2-0.5c1.8,3.8,5.3,6.3,9.3,6.3c4.3,0,8-3,9.7-7.3c0.9,0.1,1.9,0.2,2.8,0.2c3.2,0,6.1-0.8,8.6-2.2
			c1.9,2.1,4.5,3.4,7.3,3.4c4.5,0,8.4-3.3,10-8c0.4,0,0.9,0.1,1.3,0.1c1.1,0,2.2-0.2,3.3-0.4c1.8,1.6,4,2.5,6.4,2.5
			c4.4,0,8.2-3.1,9.8-7.6c2.5,1.4,5.5,2.2,8.6,2.2c6.4,0,12-3.3,14.8-8.2c1.9,0.7,4,1.1,6.2,1.1c9.2,0,16.6-6.8,16.6-15.1
			c0-1-0.1-1.9-0.3-2.9c1.3-2.1,2-4.6,2-7.2c0-4.9-2.5-9.2-6.5-11.9c0.4-1.3,0.6-2.6,0.6-4c0-8.3-7.4-15.1-16.6-15.1
			c-0.8,0-1.6,0.1-2.4,0.2c0.3-1.1,0.5-2.3,0.5-3.5c0-8.1-7.4-14.7-16.6-14.7c-0.3,0-0.5,0-0.8,0c-1.8-3.8-5.3-6.3-9.3-6.3
			c-1.5,0-3,0.4-4.3,1.1c-4.1-7-14-12.3-26.1-13.8c0-0.3,0.1-0.5,0.1-0.8C289.8,6.7,282.4,0.1,273.2,0.1z"/>
		<path id="Shape_1_" sketch:type="MSShapeGroup" class="st1" d="M273.7,0.6c-7.4,0.2-15,4.5-21.7,1.3c4.4,8,16.4,8.1,22.4,14.9
			c6.5,7.4,3.3,18.8,5.5,28.4c1.7,7.3,6.6,13.8,7.4,21.3c1.2,10.1-6.6,20.5-16.6,22.2c-1.8,0.3-3.8,0.5-4.8,2
			c-0.9,1.3-0.5,3.1-0.3,4.7c0.8,6.1-2,12.3-6.5,16.4c-4.5,4.2-10.6,6.4-16.7,6.9c-3,0.3-6.1,0.2-8.7,1.6c-2.3,1.3-3.7,3.6-5.4,5.6
			c-4.8,5.8-11.7,9.7-19.1,10.8c-6.7,1-13.5-0.2-20.3-0.3s-14.1,1.2-18.7,6.2c9,3.7,18.6,5.5,28.3,4.2c10.2-1.4,18.1-9,27.8-10.4
			c5.8-0.8,11.3,0.8,16.3-3.1c4-3.1,5.7-8.3,12-5.3c3.5,1.7,6.7,4.8,10.5,4.6c5.8-0.2,9.2-7.5,15-8.3c4.5-0.6,8.9,3.1,13.4,2.4
			c4.3-0.6,7.1-5,11.2-6.5c3.3-1.2,7-0.5,10.5-0.6s7.6-1.7,8.3-5.2c4,1.7,8.5,0.5,12.6-0.8c6.1-1.9,12.2-3.7,18.3-5.6
			c3.8-1.2,7.8-2.4,10.8-5.1c7.4-6.5,6-18.3,3.4-27.8c-1.5-5.4-3.2-10.9-6.5-15.4c-3.4-4.5-8.7-7.9-14.3-7.5
			c-0.2-5.5-3.4-10.4-7.6-14c-4.2-3.5-9.2-5.8-14.2-8c-10.3-4.6-20.6-9.3-30.9-13.9c-1.6-0.7-3.3-1.5-4.4-2.8
			c-1.3-1.4-1.9-3.3-2.8-5c-2.4-4.5-7.1-7.6-12.2-8.1C275.1,0.6,274.4,0.6,273.7,0.6z M315.4,54.9c0.6,1.3,1.5,2.5,2.5,3.6
			c-0.9-0.1-1.9-0.2-2.8-0.3c0.2-1,0.3-2,0.3-3.1C315.4,55.1,315.4,55,315.4,54.9L315.4,54.9z"/>
		<path id="Shape_2_" sketch:type="MSShapeGroup" class="st2" d="M161.4,114.5c1.5,0,2.8,0.4,4,1.1h0.1c4,0,7.3,3.2,7.5,7.1
			c0,0.1,0,0.3,0,0.4c0,1.1-0.2,2.1-0.7,3.1c0.8,1.2,1.3,2.6,1.3,4.2c0,0.1,0,0.3,0,0.4c-0.2,4-3.5,7.1-7.5,7.1
			c-0.4,0-0.8,0-1.2-0.1c-1.2,0.8-2.6,1.2-4.1,1.2c-1.5,0-2.8-0.4-4-1.1c-0.1,0-0.3,0-0.4,0c-4.2,0-7.5-3.4-7.5-7.5
			c0-1.1,0.2-2.1,0.7-3.1c-0.8-1.2-1.3-2.6-1.3-4.2c0-4.2,3.4-7.5,7.5-7.5c0.5,0,1,0,1.5,0.1C158.4,115,159.9,114.5,161.4,114.5
			L161.4,114.5z"/>
		<path id="Shape_3_" sketch:type="MSShapeGroup" class="st3" d="M163.3,116.9c1.5,0,2.8,0.4,4,1.1h0.1c4,0,7.3,3.2,7.5,7.1
			c0,0.1,0,0.3,0,0.4c0,1.1-0.2,2.1-0.7,3.1c0.8,1.2,1.3,2.6,1.3,4.2c0,0.1,0,0.3,0,0.4c-0.2,4-3.5,7.1-7.5,7.1
			c-0.4,0-0.8,0-1.2-0.1c-1.2,0.8-2.6,1.2-4.1,1.2c-1.5,0-2.8-0.4-4-1.1c-0.1,0-0.3,0-0.4,0c-4.2,0-7.5-3.4-7.5-7.5
			c0-1.1,0.2-2.1,0.7-3.1c-0.8-1.2-1.3-2.6-1.3-4.2c0-4.2,3.4-7.5,7.5-7.5c0.5,0,1,0,1.5,0.1C160.3,117.4,161.8,116.9,163.3,116.9
			L163.3,116.9z"/>
		<path id="Shape_4_" sketch:type="MSShapeGroup" class="st2" d="M244.5,114c1.5,0,2.8,0.4,4,1.1h0.1c4,0,7.3,3.2,7.5,7.1
			c0,0.1,0,0.3,0,0.4c0,1.1-0.2,2.1-0.7,3.1c0.8,1.2,1.3,2.6,1.3,4.2c0,0.1,0,0.3,0,0.4c-0.2,4-3.5,7.1-7.5,7.1
			c-0.4,0-0.8,0-1.2-0.1c-1.2,0.8-2.6,1.2-4.1,1.2c-1.5,0-2.8-0.4-4-1.1c-0.1,0-0.3,0-0.4,0c-4.2,0-7.5-3.4-7.5-7.5
			c0-1.1,0.2-2.1,0.7-3.1c-0.8-1.2-1.3-2.6-1.3-4.2c0-4.2,3.4-7.5,7.5-7.5c0.5,0,1,0,1.5,0.1C241.5,114.5,243,114,244.5,114
			L244.5,114z"/>
		<path id="Shape_5_" sketch:type="MSShapeGroup" class="st3" d="M246.4,116.6c1.1,0,2.1,0.1,3,0.2c4,0.6,7.9,3.4,8.5,7.4
			c0.2,1.2,0,2.4,0.1,3.6c0.1,2.4,1,4.9,0.2,7.2c-1.1,3.5-5.3,4.8-8.9,5.2c-3.8,0.5-7.8,0.6-11.1-1.3c-4.6-2.6-4.9-9.4-4.9-14
			C233.2,118.6,240.6,116.5,246.4,116.6z"/>
		<path id="Shape_6_" sketch:type="MSShapeGroup" class="st2" d="M353.5,67.4c2.2,0,4.3,0.7,6.1,1.7h0.2c6.2,0,11.3,4.9,11.6,11
			c0,0.2,0,0.4,0,0.6c0,1.7-0.4,3.3-1,4.7c1.2,1.8,2,4.1,2,6.4c0,0.2,0,0.4,0,0.6c-0.3,6.1-5.4,11-11.6,11c-0.6,0-1.2,0-1.8-0.1
			c-1.8,1.2-4,1.9-6.3,1.9c-2.3,0-4.4-0.6-6.2-1.8c-0.2,0-0.5,0-0.7,0c-6.4,0-11.6-5.2-11.6-11.6c0-1.7,0.4-3.3,1-4.7
			c-1.2-1.8-2-4-2-6.4c0-6.4,5.2-11.6,11.6-11.6c0.8,0,1.5,0.1,2.3,0.2C348.8,68.1,351.1,67.4,353.5,67.4L353.5,67.4z"/>
		<path id="Shape_7_" sketch:type="MSShapeGroup" class="st3" d="M356.4,71.8c4.3,0,8.7,0.6,12.3,2.9c3.6,2.3,6.2,6.7,5.4,10.9
			c-0.2,1.1-0.6,2.2-0.5,3.4c0.1,1.1,0.6,2.2,1,3.2c2,5.8-1.8,12.8-7.6,14.4c-1.6,0.4-3.3,0.5-4.9,0.9c-1.7,0.4-3.4,1-5.1,1.2
			c-2.9,0.4-5.8-0.4-8.6-1.1c-2.2-0.6-4.4-1.2-6.2-2.3c-3.3-2.1-5.3-6-5.1-9.9c0.1-1.6,0.5-3.2,0.4-4.8c-0.7-6.2-2.7-10.7,3.3-15.2
			C345,72.2,351.2,71.8,356.4,71.8C356.3,71.8,356.4,71.8,356.4,71.8z"/>
		<path id="Shape_8_" sketch:type="MSShapeGroup" class="st2" d="M307,45.9c1.5,0,3,0.4,4.2,1.2h0.1c4.3,0,7.8,3.3,8,7.6
			c0,0.1,0,0.3,0,0.4c0,1.2-0.3,2.2-0.7,3.2c0.9,1.3,1.3,2.8,1.3,4.4c0,0.1,0,0.3,0,0.4c-0.2,4.2-3.7,7.6-8,7.6
			c-0.4,0-0.8,0-1.2-0.1c-1.3,0.8-2.8,1.3-4.4,1.3c-1.6,0-3-0.4-4.2-1.2c-0.2,0-0.3,0-0.5,0c-4.4,0-8-3.6-8-8c0-1.2,0.3-2.3,0.7-3.3
			c-0.9-1.3-1.4-2.8-1.4-4.4c0-4.4,3.6-8,8-8c0.5,0,1.1,0.1,1.6,0.2C303.8,46.4,305.3,45.9,307,45.9L307,45.9z"/>
		<path id="Shape_10_" sketch:type="MSShapeGroup" class="st2" d="M31.5,80.4c1.5,0,2.8,0.4,4,1.1h0.1c4,0,7.3,3.2,7.5,7.1
			c0,0.1,0,0.3,0,0.4c0,1.1-0.2,2.1-0.7,3.1c0.8,1.2,1.3,2.6,1.3,4.2c0,0.1,0,0.3,0,0.4c-0.2,4-3.5,7.1-7.5,7.1
			c-0.4,0-0.8,0-1.2-0.1c-1.2,0.8-2.6,1.2-4.1,1.2c-1.5,0-2.8-0.4-4-1.1c-0.1,0-0.3,0-0.4,0c-4.2,0-7.5-3.4-7.5-7.5
			c0-1.1,0.2-2.1,0.7-3.1c-0.8-1.2-1.3-2.6-1.3-4.2c0-4.2,3.4-7.5,7.5-7.5c0.5,0,1,0,1.5,0.1C28.5,80.9,29.9,80.4,31.5,80.4
			L31.5,80.4z"/>
		<path id="Shape_12_" sketch:type="MSShapeGroup" class="st2" d="M108.7,85.5c1.5,0,2.8,0.4,4,1.1h0.1c4,0,7.3,3.2,7.5,7.1
			c0,0.1,0,0.3,0,0.4c0,1.1-0.2,2.1-0.7,3.1c0.8,1.2,1.3,2.6,1.3,4.2c0,0.1,0,0.3,0,0.4c-0.2,4-3.5,7.1-7.5,7.1
			c-0.4,0-0.8,0-1.2-0.1c-1.2,0.8-2.6,1.2-4.1,1.2c-1.5,0-2.8-0.4-4-1.1c-0.1,0-0.3,0-0.4,0c-4.2,0-7.5-3.4-7.5-7.5
			c0-1.1,0.2-2.1,0.7-3.1c-0.8-1.2-1.3-2.6-1.3-4.2c0-4.2,3.4-7.5,7.5-7.5c0.5,0,1,0,1.5,0.1C105.7,86,107.1,85.5,108.7,85.5
			L108.7,85.5z"/>
		<path id="Shape_14_" sketch:type="MSShapeGroup" class="st2" d="M273,76.1c1.5,0,2.8,0.3,4,0.7h0.1c4.1,0,7.4,2,7.6,4.5
			c0,0.1,0,0.2,0,0.2c0,0.7-0.2,1.3-0.7,1.9c0.8,0.8,1.3,1.6,1.3,2.6c0,0.1,0,0.2,0,0.2c-0.2,2.5-3.5,4.5-7.6,4.5
			c-0.4,0-0.8,0-1.2-0.1c-1.2,0.5-2.6,0.8-4.1,0.8c-1.5,0-2.9-0.3-4-0.7c-0.1,0-0.3,0-0.4,0c-4.2,0-7.6-2.1-7.6-4.7
			c0-0.7,0.2-1.3,0.7-1.9c-0.8-0.7-1.3-1.6-1.3-2.6c0-2.6,3.4-4.7,7.6-4.7c0.5,0,1,0,1.5,0.1C270,76.4,271.5,76.1,273,76.1L273,76.1
			z"/>
		<path id="Shape_16_" sketch:type="MSShapeGroup" class="st2" d="M81.8,46c1.5,0,2.8,0.3,4,0.7h0.1c4.1,0,7.4,2,7.6,4.5
			c0,0.1,0,0.2,0,0.2c0,0.7-0.2,1.3-0.7,1.9C93.6,54.1,94,55,94,56c0,0.1,0,0.2,0,0.2c-0.2,2.5-3.5,4.5-7.6,4.5
			c-0.4,0-0.8,0-1.2-0.1c-1.2,0.5-2.6,0.8-4.1,0.8c-1.5,0-2.9-0.3-4-0.7c-0.1,0-0.3,0-0.4,0c-4.2,0-7.6-2.1-7.6-4.7
			c0-0.7,0.2-1.3,0.7-1.9c-0.8-0.7-1.3-1.6-1.3-2.6c0-2.6,3.4-4.7,7.6-4.7c0.5,0,1,0,1.5,0.1C78.7,46.3,80.2,46,81.8,46L81.8,46z"/>
		<path id="Shape_18_" sketch:type="MSShapeGroup" class="st2" d="M206.6,62.5c2.3,0,4.4,0.4,6.1,1.1h0.2c6.3,0,11.4,3.1,11.7,6.9
			c0,0.1,0,0.3,0,0.4c0,1.1-0.4,2-1,3c1.2,1.2,2,2.5,2,4c0,0.1,0,0.3,0,0.4c-0.3,3.8-5.4,6.9-11.7,6.9c-0.6,0-1.2,0-1.8-0.1
			c-1.8,0.7-4,1.2-6.4,1.2c-2.3,0-4.4-0.4-6.2-1.1c-0.2,0-0.5,0-0.7,0c-6.5,0-11.7-3.3-11.7-7.3c0-1.1,0.4-2.1,1-3
			c-1.2-1.2-2-2.5-2-4c0-4,5.2-7.3,11.7-7.3c0.8,0,1.6,0,2.3,0.1C201.9,63,204.2,62.5,206.6,62.5L206.6,62.5z"/>
		<path id="Shape_13_" sketch:type="MSShapeGroup" class="st3" d="M309.7,50.1c2.3,0,4.7,0.2,6.8,1.1c2.8,1.2,5.2,3.8,5.4,6.9
			c0.1,1.2-0.2,2.5-0.2,3.7c0.1,1.6,0.7,3.2,0.8,4.8c0.2,4.3-3.7,7.9-7.9,7.9c-0.4,0-0.8,0-1.2-0.1c-4.1-0.6-7.5,1.7-12.3-0.7
			c-2.6-1.3-4.8-3.9-4.7-6.8c0-1.3,0.5-2.6,0.3-3.9c-0.1-1.2-0.7-2.3-1-3.5c-0.5-2.8,1.2-5.6,3.6-7.1c2.4-1.5,5.3-2,8.1-2.2
			C308.2,50.1,308.9,50.1,309.7,50.1z"/>
		<path id="Shape_11_" sketch:type="MSShapeGroup" class="st4" d="M34.2,84.2c1.5,0,2.8,0.4,4,1.1c0,0,0.1,0,0.1,0
			c3.4,0,6.7,2.4,7.3,5.8c0.3,1.6-0.1,3.3,0.1,4.9c0.2,1.8,0.9,3.5,0.7,5.3c-0.2,2.1-1.8,4-3.6,5c-1.9,1.1-4,1.5-6.2,1.7
			c-3,0.4-6.1,0.5-8.9-0.5s-5.3-3.4-5.8-6.3c-0.2-1.5,0.1-3.1-0.1-4.6c-0.1-1.2-0.5-2.4-0.6-3.7C20.7,86.4,29.1,84.2,34.2,84.2z"/>
		<path id="Shape_9_" sketch:type="MSShapeGroup" class="st4" d="M111.3,89.6c1.2,0,2.2,0.1,3.2,0.3c3.6,0.6,7.6,2.8,8.2,6.4
			c0.3,1.6-0.1,3.2,0,4.8c0.1,1.8,0.9,3.5,0.8,5.2c-0.2,2.1-1.6,4-3.4,5.1c-1.8,1.1-3.9,1.6-6,1.9c-3.5,0.5-7.2,0.6-10.3-1
			c-5.2-2.5-5.6-9.4-5.6-14.3C98.2,91.4,105.5,89.4,111.3,89.6z"/>
		<path id="Shape_7_" sketch:type="MSShapeGroup" class="st3" d="M275.7,80.1c1.8,0,3.5,0.2,5.3,0.4c2.7,0.4,5.9,1.7,6.2,4.5
			c0.1,0.8-0.1,1.6,0,2.4c0.1,0.8,0.5,1.5,0.6,2.2c0.2,1.5-0.8,2.9-2.1,3.6c-1.3,0.8-2.8,1-4.2,1.2c-4.1,0.6-8.6,1.2-12.6,0.1
			c-5.8-1.6-5.2-3.5-6.4-8.6c-0.6-2.5,2.5-4.3,5-4.9C270.2,80.4,273,80.1,275.7,80.1z"/>
		<path id="Shape_6_" sketch:type="MSShapeGroup" class="st4" d="M84.4,50c2.4,0,4.7,0.4,7,1c2.1,0.5,4.4,1.7,4.6,3.8
			c0,0.8-0.2,1.5-0.1,2.3c0.1,0.8,0.6,1.4,0.7,2.2c0.3,1.4-0.6,2.8-1.8,3.6c-1.2,0.8-2.6,1.1-4.1,1.3C86.2,65,79.7,66,75.4,63.6
			c-3-1.7-6.2-6.6-3.6-10.3c1-1.3,2.6-2,4.2-2.4C78.7,50.2,81.6,49.9,84.4,50z"/>
		<path id="Shape_2_" sketch:type="MSShapeGroup" class="st4" d="M209.3,66.6c4.3,0.2,8.1,0.8,10.1,1.2c1.9,0.5,3.9,1.1,5.5,2.3
			c1.6,1.2,2.6,3.3,2.3,5.2c-0.1,0.7-0.4,1.3-0.4,2c0.1,1.1,0.9,1.9,1.2,3c0.7,1.9-0.2,4.1-1.7,5.4s-3.5,2-5.4,2.4
			c-7,1.7-14.3,2-21.3,0.7c-2.2-0.4-4.5-0.9-6.4-2.2c-3.5-2.3-1.8-7.5-2.3-8.1c-1.2-1.2-2-2.5-2-4C188.8,67.4,200.1,66.2,209.3,66.6
			z"/>
	</g>
</g>
<path class="st3" d="M184.7,100.2c-3.3-1.8-6.9-1.6-10.5-2c-1.6-0.2-3-0.7-4.5-1.5c-2-1-3.8-1.4-6-1.1c-1.7,0.3-3.3,1.2-5,1.4
	c-1.8,0.3-3.7-0.6-5.5-0.5c-3.8,0.3-6.7,2.9-9.1,5.6c-0.6,0.7-0.7,1.4-0.6,2.1c-0.3,0.3-0.6,0.7-0.9,1.1c-0.8,1.1-0.2,2.8,0.9,3.4
	c1.2,0.7,2.7,0.2,3.4-0.9c1.6-2.3,4.7-2.7,7.2-2.7c3.6,0,7.3,0.5,11,0.6c3.6,0.1,7.2,0.1,10.8,0c1.8,0,3.6-0.1,5.4-0.1
	c1.7-0.1,3.4-0.5,4.3-2.1C186.2,102.5,185.9,100.8,184.7,100.2z M163.7,100.8c0.3-0.1,0.6-0.2,0.9-0.2c0.8-0.1,1.5,0,2.1,0.3
	C165.7,100.8,164.7,100.8,163.7,100.8z"/>
<g>
	<path class="st5" d="M314.6,44.5c0-1.2-1.2-2.7-2.5-2.5c-4.7,0.6-9.5,1.1-14.2,1.5c0.5-0.4,1.1-0.8,1.6-1.1
		c1.8-1.3,3.6-2.6,5.4-3.9c0.6-0.4,1-0.8,1.2-1.5c0.2-0.6,0.1-1.4-0.3-1.9c-0.7-1-2.3-1.7-3.4-0.9c-1.4,1-2.8,2-4.2,3
		c-0.1,0.1-0.3,0.2-0.4,0.3c1.1-2.3,2.2-4.7,3.2-7.1c0.5-1.2,0.4-2.7-0.9-3.4c-1-0.6-2.9-0.4-3.4,0.9c-2.3,5.4-4.9,10.7-7.7,15.9
		c-0.1,0.2-0.2,0.3-0.2,0.5c-1.2,0.8-2.4,1.6-3.6,2.4c-1.3-2-3-3.8-4.6-5.6c-0.9-1-2.6-1-3.5,0c-0.9,1-1,2.5,0,3.5
		c0.6,0.6,1.2,1.3,1.8,1.9c0.3,0.3,0.6,0.7,0.9,1c0.1,0.1,0.2,0.3,0.3,0.4c0.1,0.1,0.1,0.1,0.2,0.2c0.3,0.3,0.5,0.7,0.7,1.1
		c-1.7,1-3.3,1.9-5.1,2.8c-0.9-2.4-2.2-4.6-3.9-6.6c-0.9-1-2.6-0.9-3.5,0c-1,1-0.9,2.5,0,3.5c0.1,0.2,0.3,0.3,0.4,0.5c0,0,0,0,0,0
		c0,0,0,0,0.1,0.1c0.2,0.3,0.4,0.6,0.7,1c0.4,0.6,0.8,1.3,1.1,2c0.1,0.2,0.1,0.3,0.2,0.5c0.2,0.4,0,0,0.1,0.2
		c0.1,0.3,0.2,0.6,0.3,0.9c-1.2,0.6-2.5,1.1-3.7,1.6c-0.9,0.3-1.7,0.6-2.6,0.9c-0.5-2.6-1.5-5.1-3.4-7.3c-0.9-1-2.6-0.9-3.5,0
		c-1,1-0.9,2.5,0,3.5c0.1,0.1,0.2,0.3,0.4,0.4c0,0,0,0,0,0c0,0,0,0,0.1,0.1c0.2,0.3,0.4,0.5,0.5,0.8c0.1,0.2,0.3,0.5,0.4,0.8
		c0,0.1,0.1,0.2,0.1,0.2c0.1,0.2,0.1,0.3,0.2,0.5c0.2,0.7,0.4,1.3,0.5,2c0,0,0,0,0,0.1c0,0,0,0,0,0c-1.1,0.2-2.3,0.4-3.4,0.5
		c-1.2,0.1-2.4,0.1-3.7,0.1c-0.2-2.2-0.4-4.3-0.7-6.5c-0.3-1.9-0.6-3.8-0.9-5.7c-0.3-1.9-0.4-4.4-2.2-5.6c-1.8-1.2-3.9-0.6-5.6,0.5
		c-1.9,1.3-3.8,2.6-5.7,3.9c-3.8,2.6-7.7,5.3-11.5,7.9c-0.6,0.4-1,1-1.2,1.7c-0.7,0-1.3,0-1.9,0.2c-1.8,0.8-2.3,3-1.3,4.6
		c1,1.7,3.2,2.4,4.9,3.2c3.7,1.8,7.5,3.4,11.3,5c1.7,0.7,3.3,1.3,5,1.9c1.7,0.6,3.5,1.5,5.3,1.8c1.8,0.3,3.7-0.3,4.6-2
		c0.9-1.7,0.5-4.1,0.3-6c0.6,0,1.2,0,1.8,0c1.7-0.1,3.3-0.2,4.9-0.5c0,0.3,0,0.6-0.1,0.8c0,0.1,0,0.2,0,0.2c0,0.2,0,0.3-0.1,0.5
		c-0.1,0.3-0.1,0.7-0.2,1c-0.1,0.8-0.3,1.5-0.4,2.3c-0.2,1.3,0.4,2.8,1.8,3.1c1.2,0.3,2.8-0.4,3.1-1.8c0.5-2.4,0.9-4.9,1-7.4
		c2.4-0.7,4.8-1.6,7.1-2.7c0,0.5,0,1,0,1.5c0,0.4,0,0.8-0.1,1.2c0,0.2,0,0.4-0.1,0.6c0,0,0,0,0,0c0,0,0,0,0,0.1
		c-0.1,0.8-0.3,1.6-0.5,2.4c-0.4,1.3,0.5,2.8,1.8,3.1c1.3,0.3,2.7-0.4,3.1-1.8c0.9-3,1-6.2,0.5-9.3c0.5-0.3,1.1-0.6,1.6-0.8
		c1.4-0.7,2.8-1.5,4.2-2.3c0,0,0,0,0,0.1c0,0,0,0.2,0.1,0.3c0,0.1,0.1,0.4,0.1,0.5c0,0.2,0,0.4,0,0.5c0,0.4,0,0.8,0,1.2
		c-0.1,1.9,0,4,1.6,5.3c1,0.8,2.6,1.1,3.5,0c0.8-0.9,1.1-2.6,0-3.5c-0.1,0-0.1-0.1-0.1-0.1c0-0.2,0-0.5,0,0c0,0,0,0,0,0
		c0-0.2,0-0.4,0-0.5c0-0.8,0.1-1.5,0.1-2.3c0-1.4-0.3-2.8-0.8-4.1c1.3-0.8,2.6-1.7,3.9-2.6c0.1,0,0.1-0.1,0.1-0.1
		c0.4,0.3,1,0.6,1.5,0.5c6.4-0.4,12.8-1.1,19.2-1.9C313.4,46.9,314.6,46,314.6,44.5z"/>
	
		<linearGradient id="SVGID_1_" gradientUnits="userSpaceOnUse" x1="241.7917" y1="60.5316" x2="249.3272" y2="60.5316" gradientTransform="matrix(0.9665 0.2568 -0.2568 0.9665 22.35 -66.255)">
		<stop  offset="0" style="stop-color:#492A01"/>
		<stop  offset="1" style="stop-color:#6A3700"/>
	</linearGradient>
	<path class="st6" d="M247.9,55c0-0.9-0.4-1.7-1-2.3c-0.5-0.5-1.1-0.9-1.8-1.1c-0.7-0.2-1.4-0.2-2.1,0c-0.1,0-0.2,0.1-0.3,0.1
		c-0.2,0.1-0.5,0.2-0.7,0.3c-0.4,0.2-0.7,0.5-0.9,0.9c-0.5,0.7-0.8,1.5-0.7,2.3c0,0.3,0.1,0.6,0.1,0.8c0.1,0.3,0.2,0.5,0.3,0.8
		c0.1,0.1,0.1,0.2,0.2,0.3c0.2,0.2,0.3,0.5,0.5,0.6c0.1,0.1,0.2,0.2,0.3,0.3c0,0,0,0.1,0.1,0.1c0.3,0.4,0.7,0.8,1.2,0.9
		c0.3,0,0.5,0.1,0.8,0.1c0.3,0,0.5,0,0.8-0.1c0.4-0.1,0.7-0.2,1-0.4c0.3-0.2,0.6-0.4,0.9-0.7c0.3-0.2,0.5-0.5,0.7-0.9
		c0.1-0.1,0.1-0.2,0.1-0.3c0.1-0.2,0.2-0.5,0.3-0.7C247.9,55.8,248,55.4,247.9,55z"/>
</g>
</svg>
