<?xml version="1.0" encoding="utf-8"?>
<!-- Generator: Adobe Illustrator 24.1.3, SVG Export Plug-In . SVG Version: 6.00 Build 0)  -->
<svg version="1.1" id="Layer_1" xmlns="http://www.w3.org/2000/svg" xmlns:xlink="http://www.w3.org/1999/xlink" x="0px" y="0px"
	 viewBox="0 0 197 276" style="enable-background:new 0 0 197 276;" xml:space="preserve">
<style type="text/css">
	.st0{stroke:#000000;stroke-width:6;stroke-linecap:round;stroke-linejoin:round;stroke-miterlimit:10;}
	.st1{fill:#FFCBC6;}
	.st2{fill:#FFCBC6;stroke:#000000;stroke-width:3;stroke-linecap:round;stroke-linejoin:round;stroke-miterlimit:10;}
	.st3{fill:none;stroke:#FFFFFF;stroke-width:6;stroke-linecap:round;stroke-linejoin:round;stroke-miterlimit:10;}
</style>
<g id="Layer_1_1_" xmlns:sketch="http://www.bohemiancoding.com/sketch/ns">
	<path class="st0" d="M184.4,280.5L167,64.4c1.2-3.4,1.9-7,2.1-10.9c0.6-17.6-5.3-32.4-20.7-32.9c-2.5-0.1-4.9,0.2-7.3,0.8
		c-4.5-9.5-13.2-16-23.4-16.4c-6.8-0.2-13.2,2.3-18.2,6.8c-4.6-4.7-10.7-7.8-17.6-8C70.9,3.4,61,10.5,56.2,21
		C41.3,21.3,33,37.8,32.4,55c-0.1,4,0.4,7.8,1.4,11.3L12.5,280.5H184.4z"/>
	<ellipse class="st1" cx="60.9" cy="52.4" rx="9.7" ry="11.3"/>
	<ellipse class="st1" cx="85" cy="33.6" rx="9.7" ry="11.3"/>
	<ellipse class="st1" cx="114.8" cy="33" rx="9.7" ry="11.3"/>
	<ellipse class="st1" cx="141.3" cy="53.4" rx="9.7" ry="11.3"/>
	<path class="st2" d="M126.4,86.6c-0.5-0.8-1-1.7-1.4-2.7c-4.2-10-9.8-18.8-21.9-19.2c-8.5-0.3-16.9,4.6-20.9,12.1
		c-2.1,3.9-2.9,8.4-5.1,12.3c-1.1,2-2.5,3.8-3.5,5.8c-5,10.6,5.4,25,17.1,20.9c3.3-1.2,6.3-3,9.8-3.5c6-0.7,11.7,3.2,17.7,3.2
		c5.3,0,10.5-3.3,12.8-8.1c2.3-4.8,1.9-10.8-1.1-15.2C128.9,90.2,127.6,88.5,126.4,86.6z"/>
	<path class="st3" d="M88.4,140.9c0,0,12.4,7.6,28.4,0.5"/>
</g>
<g id="Layer_2_1_">
</g>
<g id="Layer_3">
</g>
<g id="Layer_4">
</g>
<g id="Layer_5">
</g>
<g id="Layer_6">
</g>
</svg>
