<?xml version="1.0" encoding="utf-8"?>
<!-- Generator: Adobe Illustrator 24.1.3, SVG Export Plug-In . SVG Version: 6.00 Build 0)  -->
<svg version="1.1" id="Layer_1" xmlns="http://www.w3.org/2000/svg" xmlns:xlink="http://www.w3.org/1999/xlink" x="0px" y="0px"
	 viewBox="0 0 197 276" style="enable-background:new 0 0 197 276;" xml:space="preserve">
<style type="text/css">
	.st0{clip-path:url(#SVGID_2_);}
	.st1{fill:#EAEAEA;}
	.st2{fill:#707070;}
	.st3{fill:none;stroke:#000000;stroke-width:6;stroke-linecap:round;stroke-linejoin:round;stroke-miterlimit:10;}
	.st4{fill:#FBCBC7;}
</style>
<g id="Layer_2_1_">
	<g>
		<g>
			<defs>
				<path id="SVGID_1_" d="M184.4,280.5L167,64.4c1.2-3.4,1.9-7,2.1-10.9c0.6-17.6-5.3-32.4-20.7-32.9c-2.5-0.1-4.9,0.2-7.3,0.8
					c-4.5-9.5-13.2-16-23.4-16.4c-6.8-0.2-13.2,2.3-18.2,6.8c-4.6-4.7-10.7-7.8-17.6-8C70.9,3.4,61,10.5,56.2,21
					C41.3,21.3,33,37.8,32.4,55c-0.1,4,0.4,7.8,1.4,11.3L12.5,280.5H184.4z"/>
			</defs>
			<clipPath id="SVGID_2_">
				<use xlink:href="#SVGID_1_"  style="overflow:visible;"/>
			</clipPath>
			<g class="st0">
				<path class="st1" d="M206.1,230.6c-0.7-3.2-1.9-6.1-3.4-8.9c0.5-0.4,0.9-0.9,1.4-1.3c14.3-14.2,13.1-39.5-2.5-51.9
					c6.2-8.3,9.3-17.7,7.8-28.4c-1.5-11.3-7.3-19.3-16-26c-0.4-0.3-0.9-0.6-1.3-0.9c2.7-3.6,5.3-7.2,7.9-10.7c4.8-6.6,6-19.4,3.5-27
					c-1.3-4.1-3.2-7.8-5.6-11c3.5-8.2,4.4-17.5,2-26.6c-2.2-8.6-8.4-17.3-12.8-24.9c-6.2-10.7-15.6-20.1-27.9-23.4
					c-8.3-2.3-17.7-2.7-26.4-3.4c-13.4-1.2-26.9-1.6-40.4-1.3c-6.6,0.1-13.1,0.5-19.7,1c-10.6,0.8-21.7,1.6-31,7.3
					c-17.8,11-24.8,29.8-24.6,50c0.1,13.3,0.4,26.6,0.1,39.9c-0.5,28.8-2,57.7-5.5,86.3c-1.2,7.6-2.9,15-5.5,22.3
					c-2.9,8.1-0.7,19.7,3.5,27s-9.1,13-0.8,14.9c1,0.2-7.1-2-6.1-1.8c-0.1,0,6.4,6.4,6.3,6.5c-8.7,0.1,6.8-2.6-2-2.3
					c-18.3,0.5-35.9,15.7-35,35c0.8,18.5,15.4,35.6,35,35c5.8-0.2,11.6-0.3,17.4-0.4c3.5,1.2,7.3,2,11.2,2.2
					c16.6,0.9,33.3,0.3,49.8-1.7c8.3-1,15.3-2.6,21.7-7.6c5.1,0.1,10.2,0.1,15.3,0c23.1-0.6,46.2-4.8,66.3-16.5
					c11.3-6.6,17.6-19.2,17.2-31.9C207.2,243.6,207.7,237.6,206.1,230.6z"/>
				<g>
					<path class="st2" d="M267.5,210.5c-6.6-18.7-17.8-27.3-29.4-26.4c-38,3.7-77.2,0.5-116.9-9.3c-40.8-10.2-82-28.4-122.9-38
						C-27.9,130.7-26,186.3-5,205c-2.5,6.7-3.9,14.3-4.6,21.6c-1.2,10.8,2.1,24.6,8,34.3c-2.3,10.4-0.7,24.3,4.2,35.6
						c3.3,7.3,7.3,12.7,11.6,16.4c0.7,1.9,1.1,3.5,2,5.3c8.8,20.1,22.3,24.5,33,18.7c33.7-17.5,67.4-34,103.3-44.2
						c37.4-10.7,75.3-18,109.9-37.8C272,249.1,273.2,226.4,267.5,210.5z"/>
				</g>
			</g>
		</g>
	</g>
</g>
<g id="Layer_1_1_" xmlns:sketch="http://www.bohemiancoding.com/sketch/ns">
	<path class="st3" d="M184.4,280.5L167,64.4c1.2-3.4,1.9-7,2.1-10.9c0.6-17.6-5.3-32.4-20.7-32.9c-2.5-0.1-4.9,0.2-7.3,0.8
		c-4.5-9.5-13.2-16-23.4-16.4c-6.8-0.2-13.2,2.3-18.2,6.8c-4.6-4.7-10.7-7.8-17.6-8C70.9,3.4,61,10.5,56.2,21
		C41.3,21.3,33,37.8,32.4,55c-0.1,4,0.4,7.8,1.4,11.3L12.5,280.5H184.4z"/>
	<ellipse class="st4" cx="60.9" cy="52.4" rx="9.7" ry="11.3"/>
	<ellipse class="st4" cx="85" cy="33.6" rx="9.7" ry="11.3"/>
	<ellipse class="st4" cx="114.8" cy="33" rx="9.7" ry="11.3"/>
	<ellipse class="st4" cx="141.3" cy="53.4" rx="9.7" ry="11.3"/>
	<path class="st4" d="M126.4,86.6c-0.5-0.8-1-1.7-1.4-2.7c-4.2-10-9.8-18.8-21.9-19.2c-8.5-0.3-16.9,4.6-20.9,12.1
		c-2.1,3.9-2.9,8.4-5.1,12.3c-1.1,2-2.5,3.8-3.5,5.8c-5,10.6,5.4,25,17.1,20.9c3.3-1.2,6.3-3,9.8-3.5c6-0.7,11.7,3.2,17.7,3.2
		c5.3,0,10.5-3.3,12.8-8.1c2.3-4.8,1.9-10.8-1.1-15.2C128.9,90.2,127.6,88.5,126.4,86.6z"/>
	<path class="st3" d="M88.4,140.9c0,0,12.4,7.6,28.4,0.5"/>
</g>
<g id="Layer_3">
</g>
<g id="Layer_4">
</g>
<g id="Layer_5">
</g>
<g id="Layer_6">
</g>
</svg>
