<?xml version="1.0" encoding="utf-8"?>
<!-- Generator: Adobe Illustrator 24.1.3, SVG Export Plug-In . SVG Version: 6.00 Build 0)  -->
<svg version="1.1" id="Layer_1" xmlns="http://www.w3.org/2000/svg" xmlns:xlink="http://www.w3.org/1999/xlink" x="0px" y="0px"
	 viewBox="0 0 197 276" style="enable-background:new 0 0 197 276;" xml:space="preserve">
<style type="text/css">
	.st0{clip-path:url(#SVGID_2_);}
	.st1{fill:#FFFFFF;}
	.st2{fill:none;stroke:#000000;stroke-width:6;stroke-linecap:round;stroke-linejoin:round;stroke-miterlimit:10;}
</style>
<g id="Layer_2_1_">
	<g>
		<g>
			<defs>
				<path id="SVGID_1_" d="M184.4,280.5L167,64.4c1.2-3.4,1.9-7,2.1-10.9c0.6-17.6-5.3-32.4-20.7-32.9c-2.5-0.1-4.9,0.2-7.3,0.8
					c-4.5-9.5-13.2-16-23.4-16.4c-6.8-0.2-13.2,2.3-18.2,6.8c-4.6-4.7-10.7-7.8-17.6-8C70.9,3.4,61,10.5,56.2,21
					C41.3,21.3,33,37.8,32.4,55c-0.1,4,0.4,7.8,1.4,11.3L12.5,280.5H184.4z"/>
			</defs>
			<clipPath id="SVGID_2_">
				<use xlink:href="#SVGID_1_"  style="overflow:visible;"/>
			</clipPath>
			<g class="st0">
				<path class="st1" d="M206.1,230.6c-0.7-3.2-1.9-6.1-3.4-8.9c0.5-0.4,0.9-0.9,1.4-1.3c14.3-14.2,13.1-39.5-2.5-51.9
					c6.2-8.3,9.3-17.7,7.8-28.4c-1.5-11.3-7.3-19.3-16-26c-0.4-0.3-0.9-0.6-1.3-0.9c2.7-3.6,5.3-7.2,7.9-10.7c4.8-6.6,6-19.4,3.5-27
					c-1.3-4.1-3.2-7.8-5.6-11c3.5-8.2,4.4-17.5,2-26.6c-2.2-8.6-8.4-17.3-12.8-24.9c-6.2-10.7-15.6-20.1-27.9-23.4
					c-8.3-2.3-17.7-2.7-26.4-3.4c-13.4-1.2-26.9-1.6-40.4-1.3c-6.6,0.1-13.1,0.5-19.7,1c-10.6,0.8-21.7,1.6-31,7.3
					c-17.8,11-24.8,29.8-24.6,50c0.1,13.3,0.4,26.6,0.1,39.9c-0.5,28.8-2,57.7-5.5,86.3c-1.2,7.6-2.9,15-5.5,22.3
					c-2.9,8.1-0.7,19.7,3.5,27s12.6,14.2,20.9,16.1c1,0.2,2,0.4,3.1,0.6c-0.1,0-0.2,0.1-0.4,0.1c-8.7,0.1-17.5,0.2-26.2,0.5
					c-18.3,0.5-35.9,15.7-35,35c0.8,18.5,15.4,35.6,35,35c5.8-0.2,11.6-0.3,17.4-0.4c3.5,1.2,7.3,2,11.2,2.2
					c16.6,0.9,33.3,0.3,49.8-1.7c8.3-1,15.3-2.6,21.7-7.6c5.1,0.1,10.2,0.1,15.3,0c23.1-0.6,46.2-4.8,66.3-16.5
					c11.3-6.6,17.6-19.2,17.2-31.9C207.2,243.6,207.7,237.6,206.1,230.6z"/>
				<path d="M85.7,199c41.3-6.6,83.1-6.2,124.2,1.4c9.5,1.7,5.5,16.2-4,14.5c-2.4-0.4-4.8-0.9-7.2-1.2c0.2,1.7,0,3.3-0.7,4.6
					c3.2,4.2,0.3,11.9-6.1,12.3c-1.8,0.1-3.6,0.2-5.4,0.3c5.1,1.8,10,4.1,14.6,7.1c0.2,0,0.4,0,0.6,0c9.1-0.7,9.5,12.6,1.5,14.7
					c1.8,4.7-2.2,11.8-9,10.7c-21.1-3.7-41.5-10.1-60.9-18.9c-9.4-4.3-18.6-9.1-27.4-14.5c-8.4-5.1-19.8-10.9-24.7-19.8
					C79.1,206.2,80.7,199.8,85.7,199z"/>
				<path d="M-10.9,141.3c18.9,3.6,37.8,6.9,56.8,9.8c9.3,1.4,18.6,2.7,28,4c9.1,1.2,18.4,1.8,27,5.2c6.4,2.5,7.8,12.5,0,14.5
					c-13.3,3.3-27,5-40.7,4.7c-6.9-0.1-13.7-0.8-20.5-1.8c-6.4-1-12.7-2.8-19.2-2.5c-8,0.3-9.3-9.9-4.1-13.6
					C6,159.8-4.4,158-14.8,156C-24.4,154-20.4,139.5-10.9,141.3z"/>
				<path d="M-1.7,239.1c2.9-0.5,5.8-1,8.7-1.3c-6.6-3.9-2.6-15.9,6-13.6c25.5,6.8,50.9,13.6,76.4,20.5c8.1,2.2,6.5,14.8-2,14.7
					c-16.4-0.1-32.8-0.2-49.2-0.4c-13.5-0.1-30.1,2.1-41.7-6.2C-8.3,249.4-8.7,240.4-1.7,239.1z"/>
			</g>
		</g>
	</g>
</g>
<g id="Layer_1_1_" xmlns:sketch="http://www.bohemiancoding.com/sketch/ns">
	<path class="st2" d="M184.4,280.5L167,64.4c1.2-3.4,1.9-7,2.1-10.9c0.6-17.6-5.3-32.4-20.7-32.9c-2.5-0.1-4.9,0.2-7.3,0.8
		c-4.5-9.5-13.2-16-23.4-16.4c-6.8-0.2-13.2,2.3-18.2,6.8c-4.6-4.7-10.7-7.8-17.6-8C70.9,3.4,61,10.5,56.2,21
		C41.3,21.3,33,37.8,32.4,55c-0.1,4,0.4,7.8,1.4,11.3L12.5,280.5H184.4z"/>
	<ellipse cx="60.9" cy="52.4" rx="9.7" ry="11.3"/>
	<ellipse cx="85" cy="33.6" rx="9.7" ry="11.3"/>
	<ellipse cx="114.8" cy="33" rx="9.7" ry="11.3"/>
	<ellipse cx="141.3" cy="53.4" rx="9.7" ry="11.3"/>
	<path d="M126.4,86.6c-0.5-0.8-1-1.7-1.4-2.7c-4.2-10-9.8-18.8-21.9-19.2c-8.5-0.3-16.9,4.6-20.9,12.1c-2.1,3.9-2.9,8.4-5.1,12.3
		c-1.1,2-2.5,3.8-3.5,5.8c-5,10.6,5.4,25,17.1,20.9c3.3-1.2,6.3-3,9.8-3.5c6-0.7,11.7,3.2,17.7,3.2c5.3,0,10.5-3.3,12.8-8.1
		c2.3-4.8,1.9-10.8-1.1-15.2C128.9,90.2,127.6,88.5,126.4,86.6z"/>
	<path class="st2" d="M88.4,140.9c0,0,12.4,7.6,28.4,0.5"/>
</g>
<g id="Layer_3">
</g>
<g id="Layer_4">
</g>
<g id="Layer_5">
</g>
<g id="Layer_6">
</g>
</svg>
